<svg width="129" height="175" viewBox="0 0 129 175" fill="none" xmlns="http://www.w3.org/2000/svg">
<path d="M57.9134 1.3015L5.48603 48L60.5 3.49994L57.9134 1.3015Z" fill="#F0B429" stroke="#F0B429" stroke-width="0.1"/>
<path d="M57.9999 0.999941L110.844 47.9999L55.5 3.49984L57.9999 0.999941Z" fill="#F0B429" stroke="#F0B429" stroke-width="0.1"/>
<path d="M75 33.5L40 38L69.3911 56.5H115.5L75 33.5Z" fill="#0A1F44"/>
<path d="M75.3525 33.5374L39.4844 57.6975L0.192383 56.9534L48.5098 31.2991L75.3525 33.5374Z" fill="#0A1F44" stroke="white" stroke-width="0.1"/>
<path d="M40 29V40" stroke="#0A1F44" stroke-width="9"/>
<path d="M36.7144 103V62.2727H37.9871V87.6477H38.1462L61.2144 62.2727H62.9644L44.9871 82L62.7258 103H61.0553L44.1121 82.9545L37.9871 89.7159V103H36.7144ZM79.3438 62.2727H86.662V90.9091C86.6487 93.5341 86.0919 95.7945 84.9915 97.6903C83.8912 99.5729 82.3533 101.025 80.3779 102.045C78.4158 103.053 76.1289 103.557 73.5171 103.557C71.1308 103.557 68.983 103.133 67.0739 102.284C65.1781 101.422 63.6734 100.15 62.5597 98.4659C61.4461 96.7822 60.8893 94.6875 60.8893 92.1818H68.2273C68.2406 93.2822 68.4792 94.2301 68.9432 95.0256C69.4205 95.821 70.0768 96.4309 70.912 96.8551C71.7472 97.2794 72.7084 97.4915 73.7955 97.4915C74.9754 97.4915 75.9764 97.2462 76.7984 96.7557C77.6203 96.2519 78.2434 95.5095 78.6677 94.5284C79.1052 93.5473 79.3306 92.3409 79.3438 90.9091V62.2727Z" fill="black"/>
<path d="M15.4 120.902C15.7 120.902 15.97 120.86 16.21 120.776L16.12 121.856C16 121.94 15.814 122.012 15.562 122.072C15.322 122.144 15.058 122.18 14.77 122.18C14.266 122.18 13.828 122.036 13.456 121.748C13.096 121.448 12.694 121.004 12.25 120.416L8.34398 115.142V120.128C8.34398 120.368 8.37398 120.536 8.43398 120.632C8.50598 120.716 8.64998 120.776 8.86598 120.812L9.83798 120.974V122H5.42798V120.974L6.32798 120.812C6.54398 120.776 6.68198 120.716 6.74198 120.632C6.81398 120.536 6.84998 120.368 6.84998 120.128V110.912C6.84998 110.672 6.81398 110.51 6.74198 110.426C6.68198 110.33 6.54398 110.264 6.32798 110.228L5.42798 110.066V109.04H9.83798V110.066L8.86598 110.228C8.64998 110.264 8.50598 110.33 8.43398 110.426C8.37398 110.51 8.34398 110.672 8.34398 110.912V114.782L12.952 109.814C13.432 109.298 14.05 109.04 14.806 109.04H15.526V110.174C15.118 110.174 14.794 110.216 14.554 110.3C14.314 110.384 14.056 110.57 13.78 110.858L9.98198 114.926L13.384 119.39C13.852 119.99 14.224 120.392 14.5 120.596C14.788 120.8 15.088 120.902 15.4 120.902ZM26.6809 122H17.4289V120.956L18.3289 120.794C18.5449 120.758 18.6829 120.698 18.7429 120.614C18.8149 120.518 18.8509 120.35 18.8509 120.11V110.912C18.8509 110.66 18.8149 110.486 18.7429 110.39C18.6829 110.282 18.5449 110.216 18.3289 110.192L17.4289 110.084V109.04H26.6089L26.5009 112.118H25.3849L25.2769 110.822C25.2649 110.618 25.2049 110.48 25.0969 110.408C25.0009 110.336 24.8329 110.3 24.5929 110.3H20.3449V114.638H24.6289V115.826H20.3449V120.74H24.6469C24.8869 120.74 25.0549 120.704 25.1509 120.632C25.2589 120.56 25.3189 120.422 25.3309 120.218L25.4389 118.85H26.5729L26.6809 122ZM27.3361 123.818C28.2241 123.29 28.8661 122.834 29.2621 122.45C29.6701 122.066 29.9401 121.64 30.0721 121.172C30.2041 120.692 30.2701 120.02 30.2701 119.156V110.912C30.2701 110.672 30.2341 110.51 30.1621 110.426C30.1021 110.33 29.9641 110.264 29.7481 110.228L28.8481 110.066V109.04H33.1681V110.066L32.2861 110.228C32.0701 110.264 31.9261 110.33 31.8541 110.426C31.7941 110.51 31.7641 110.672 31.7641 110.912V119.336C31.7641 120.404 31.6681 121.226 31.4761 121.802C31.2961 122.378 30.9541 122.87 30.4501 123.278C29.9461 123.698 29.1301 124.202 28.0021 124.79L27.3361 123.818ZM46.4079 120.974V122H41.9619V121.01L42.8979 120.848C43.2099 120.788 43.3659 120.644 43.3659 120.416C43.3659 120.308 43.3419 120.182 43.2939 120.038L42.5019 117.698H37.6779L36.8679 119.984C36.8199 120.152 36.7959 120.284 36.7959 120.38C36.7959 120.632 36.9579 120.788 37.2819 120.848L38.1819 121.01V122H34.0239V120.974L34.6539 120.848C34.8939 120.8 35.0679 120.728 35.1759 120.632C35.2839 120.524 35.3919 120.32 35.4999 120.02L39.4239 109.04H41.1159L44.8959 120.02C44.9919 120.308 45.0939 120.506 45.2019 120.614C45.3219 120.722 45.5079 120.8 45.7599 120.848L46.4079 120.974ZM42.0879 116.492L40.3599 111.398L40.1259 110.498L39.8919 111.398L38.0919 116.492H42.0879ZM67.767 120.974V122H63.357V120.974L64.311 120.866C64.479 120.842 64.611 120.782 64.707 120.686C64.803 120.59 64.845 120.458 64.833 120.29L64.311 112.262L64.239 110.894L63.825 112.244L60.639 122H59.397L56.103 112.19L55.689 110.894L55.653 112.208L55.149 120.254C55.137 120.446 55.173 120.59 55.257 120.686C55.341 120.782 55.485 120.842 55.689 120.866L56.607 120.974V122H52.449V120.974L53.367 120.812C53.583 120.776 53.715 120.722 53.763 120.65C53.823 120.566 53.865 120.398 53.889 120.146L54.537 110.714C54.549 110.558 54.507 110.438 54.411 110.354C54.315 110.258 54.177 110.198 53.997 110.174L53.115 110.066V109.04H56.607L59.847 118.778L60.135 119.966L60.441 118.706L63.555 109.04H67.101V110.066L66.237 110.174C66.021 110.198 65.871 110.252 65.787 110.336C65.703 110.42 65.667 110.558 65.679 110.75L66.327 120.146C66.351 120.398 66.387 120.566 66.435 120.65C66.495 120.722 66.633 120.776 66.849 120.812L67.767 120.974ZM81.11 120.974V122H76.664V121.01L77.6 120.848C77.912 120.788 78.068 120.644 78.068 120.416C78.068 120.308 78.044 120.182 77.996 120.038L77.204 117.698H72.38L71.57 119.984C71.522 120.152 71.498 120.284 71.498 120.38C71.498 120.632 71.66 120.788 71.984 120.848L72.884 121.01V122H68.726V120.974L69.356 120.848C69.596 120.8 69.77 120.728 69.878 120.632C69.986 120.524 70.094 120.32 70.202 120.02L74.126 109.04H75.818L79.598 120.02C79.694 120.308 79.796 120.506 79.904 120.614C80.024 120.722 80.21 120.8 80.462 120.848L81.11 120.974ZM76.79 116.492L75.062 111.398L74.828 110.498L74.594 111.398L72.794 116.492H76.79ZM91.5976 109.04L91.4896 112.154H90.3916L90.2836 110.822C90.2716 110.618 90.2116 110.48 90.1036 110.408C90.0076 110.336 89.8396 110.3 89.5996 110.3H87.0436V120.128C87.0436 120.368 87.0736 120.536 87.1336 120.632C87.2056 120.716 87.3496 120.776 87.5656 120.812L88.5736 120.974V122H84.0196V120.974L85.0276 120.812C85.2436 120.776 85.3816 120.716 85.4416 120.632C85.5136 120.536 85.5496 120.368 85.5496 120.128V110.3H82.9756C82.7356 110.3 82.5676 110.336 82.4716 110.408C82.3756 110.48 82.3216 110.618 82.3096 110.822L82.1836 112.154H81.0856L80.9776 109.04H91.5976ZM98.143 122.18C96.475 122.18 95.197 121.622 94.309 120.506C93.421 119.378 92.977 117.806 92.977 115.79C92.977 114.362 93.199 113.126 93.643 112.082C94.099 111.038 94.759 110.24 95.623 109.688C96.499 109.136 97.549 108.86 98.773 108.86C99.517 108.86 100.225 108.956 100.897 109.148C101.581 109.34 102.163 109.58 102.643 109.868L102.355 112.838H101.239L100.951 110.732C100.183 110.36 99.343 110.174 98.431 110.174C97.063 110.174 96.085 110.582 95.497 111.398C94.909 112.202 94.615 113.438 94.615 115.106C94.615 117.05 94.963 118.496 95.659 119.444C96.367 120.38 97.357 120.848 98.629 120.848C99.685 120.848 100.891 120.56 102.247 119.984L102.589 121.118C101.929 121.406 101.209 121.658 100.429 121.874C99.661 122.078 98.899 122.18 98.143 122.18ZM115.375 110.228C115.159 110.264 115.015 110.33 114.943 110.426C114.883 110.51 114.853 110.672 114.853 110.912V120.128C114.853 120.368 114.883 120.536 114.943 120.632C115.015 120.716 115.159 120.776 115.375 120.812L116.275 120.974V122H111.847V120.974L112.837 120.812C113.053 120.776 113.191 120.716 113.251 120.632C113.323 120.536 113.359 120.368 113.359 120.128V115.808H107.185V120.128C107.185 120.368 107.215 120.536 107.275 120.632C107.347 120.716 107.491 120.776 107.707 120.812L108.697 120.974V122H104.269V120.974L105.169 120.812C105.385 120.776 105.523 120.716 105.583 120.632C105.655 120.536 105.691 120.368 105.691 120.128V110.912C105.691 110.672 105.655 110.51 105.583 110.426C105.523 110.33 105.385 110.264 105.169 110.228L104.269 110.066V109.04H108.697V110.066L107.707 110.228C107.491 110.264 107.347 110.33 107.275 110.426C107.215 110.51 107.185 110.672 107.185 110.912V114.62H113.359V110.912C113.359 110.672 113.323 110.51 113.251 110.426C113.191 110.33 113.053 110.264 112.837 110.228L111.847 110.066V109.04H116.275V110.066L115.375 110.228Z" fill="#0A1F44"/>
<path d="M34.3401 131.887C34.3401 132.064 34.3494 132.209 34.3681 132.321C34.3868 132.428 34.4218 132.512 34.4731 132.573C34.5291 132.629 34.6061 132.669 34.7041 132.692C34.8068 132.715 34.9398 132.729 35.1031 132.734V133H32.8351V132.734C32.9984 132.729 33.1291 132.715 33.2271 132.692C33.3298 132.669 33.4091 132.629 33.4651 132.573C33.5211 132.517 33.5584 132.438 33.5771 132.335C33.5958 132.232 33.6051 132.099 33.6051 131.936V130.417H30.7701V131.887C30.7701 132.064 30.7794 132.209 30.7981 132.321C30.8168 132.428 30.8518 132.512 30.9031 132.573C30.9591 132.629 31.0361 132.669 31.1341 132.692C31.2368 132.715 31.3698 132.729 31.5331 132.734V133H29.2651V132.734C29.4284 132.729 29.5591 132.715 29.6571 132.692C29.7598 132.669 29.8391 132.629 29.8951 132.573C29.9511 132.517 29.9884 132.438 30.0071 132.335C30.0258 132.232 30.0351 132.099 30.0351 131.936V128.674C30.0351 128.511 30.0258 128.38 30.0071 128.282C29.9931 128.179 29.9604 128.1 29.9091 128.044C29.8624 127.983 29.7924 127.944 29.6991 127.925C29.6058 127.902 29.4844 127.885 29.3351 127.876V127.61H31.4631V127.876C31.3138 127.881 31.1924 127.895 31.0991 127.918C31.0104 127.941 30.9404 127.983 30.8891 128.044C30.8424 128.105 30.8098 128.189 30.7911 128.296C30.7771 128.403 30.7701 128.546 30.7701 128.723V130.067H33.6051V128.674C33.6051 128.511 33.5958 128.38 33.5771 128.282C33.5631 128.179 33.5304 128.1 33.4791 128.044C33.4324 127.983 33.3624 127.944 33.2691 127.925C33.1758 127.902 33.0544 127.885 32.9051 127.876V127.61H35.0331V127.876C34.8838 127.881 34.7624 127.895 34.6691 127.918C34.5804 127.941 34.5104 127.983 34.4591 128.044C34.4124 128.105 34.3798 128.189 34.3611 128.296C34.3471 128.403 34.3401 128.546 34.3401 128.723V131.887ZM37.659 127.54C38.0697 127.54 38.4524 127.612 38.807 127.757C39.1617 127.902 39.4697 128.1 39.731 128.352C39.9924 128.604 40.1977 128.9 40.347 129.241C40.4964 129.582 40.571 129.95 40.571 130.347C40.571 130.725 40.494 131.08 40.34 131.411C40.1907 131.742 39.9854 132.032 39.724 132.279C39.4627 132.522 39.1547 132.715 38.8 132.86C38.4454 133 38.065 133.07 37.659 133.07C37.253 133.07 36.8727 133 36.518 132.86C36.1634 132.715 35.8554 132.522 35.594 132.279C35.3327 132.032 35.125 131.742 34.971 131.411C34.8217 131.08 34.747 130.725 34.747 130.347C34.747 129.95 34.8217 129.582 34.971 129.241C35.1204 128.9 35.3257 128.604 35.587 128.352C35.8484 128.1 36.1564 127.902 36.511 127.757C36.8657 127.612 37.2484 127.54 37.659 127.54ZM37.659 132.685C37.967 132.685 38.2424 132.631 38.485 132.524C38.7324 132.417 38.9424 132.263 39.115 132.062C39.2924 131.861 39.4277 131.619 39.521 131.334C39.6144 131.045 39.661 130.723 39.661 130.368C39.661 129.995 39.6144 129.659 39.521 129.36C39.4277 129.057 39.2947 128.8 39.122 128.59C38.9494 128.375 38.7394 128.212 38.492 128.1C38.2447 127.983 37.967 127.925 37.659 127.925C37.351 127.925 37.0734 127.983 36.826 128.1C36.5787 128.212 36.3687 128.375 36.196 128.59C36.0234 128.8 35.8904 129.057 35.797 129.36C35.7037 129.659 35.657 129.995 35.657 130.368C35.657 130.723 35.7037 131.045 35.797 131.334C35.8904 131.619 36.0234 131.861 36.196 132.062C36.3687 132.263 36.5787 132.417 36.826 132.524C37.0734 132.631 37.351 132.685 37.659 132.685ZM44.964 130.83C44.964 131.199 44.9267 131.523 44.852 131.803C44.782 132.083 44.6654 132.316 44.502 132.503C44.3434 132.69 44.1357 132.832 43.879 132.93C43.6224 133.023 43.312 133.07 42.948 133.07C42.6027 133.07 42.3017 133.037 42.045 132.972C41.7884 132.902 41.5737 132.79 41.401 132.636C41.2284 132.477 41.1 132.272 41.016 132.02C40.932 131.768 40.89 131.458 40.89 131.089V129.241C40.89 128.896 40.8807 128.63 40.862 128.443C40.848 128.256 40.8014 128.119 40.722 128.03C40.666 127.969 40.589 127.93 40.491 127.911C40.3977 127.888 40.2717 127.876 40.113 127.876V127.61H42.5V127.876C42.3414 127.876 42.213 127.885 42.115 127.904C42.017 127.923 41.94 127.969 41.884 128.044C41.8187 128.128 41.7767 128.263 41.758 128.45C41.7394 128.632 41.73 128.896 41.73 129.241V131.145C41.73 131.383 41.7534 131.595 41.8 131.782C41.8514 131.964 41.933 132.12 42.045 132.251C42.157 132.377 42.3017 132.473 42.479 132.538C42.661 132.603 42.8827 132.636 43.144 132.636C43.6107 132.636 43.9607 132.508 44.194 132.251C44.4274 131.99 44.544 131.607 44.544 131.103V129.416C44.544 129.001 44.5277 128.686 44.495 128.471C44.4624 128.256 44.4017 128.105 44.313 128.016C44.2477 127.955 44.166 127.918 44.068 127.904C43.97 127.885 43.8487 127.876 43.704 127.876V127.61H45.734V127.876C45.5847 127.876 45.461 127.888 45.363 127.911C45.2697 127.934 45.195 127.986 45.139 128.065C45.069 128.163 45.0224 128.317 44.999 128.527C44.9757 128.732 44.964 129.029 44.964 129.416V130.83ZM45.3243 131.355H45.5833C45.616 131.565 45.6766 131.754 45.7653 131.922C45.8586 132.09 45.973 132.232 46.1083 132.349C46.2483 132.466 46.407 132.557 46.5843 132.622C46.7663 132.683 46.9623 132.713 47.1723 132.713C47.5176 132.713 47.7906 132.631 47.9913 132.468C48.192 132.305 48.2923 132.083 48.2923 131.803C48.2923 131.686 48.2713 131.579 48.2293 131.481C48.192 131.383 48.1266 131.29 48.0333 131.201C47.94 131.108 47.814 131.017 47.6553 130.928C47.5013 130.839 47.3053 130.744 47.0673 130.641C46.778 130.515 46.5353 130.394 46.3393 130.277C46.1433 130.16 45.987 130.039 45.8703 129.913C45.7536 129.787 45.6696 129.654 45.6183 129.514C45.5716 129.369 45.5483 129.206 45.5483 129.024C45.5483 128.809 45.5856 128.611 45.6603 128.429C45.7396 128.247 45.8493 128.091 45.9893 127.96C46.1293 127.825 46.295 127.722 46.4863 127.652C46.6776 127.577 46.8876 127.54 47.1163 127.54C47.3216 127.54 47.513 127.573 47.6903 127.638C47.8676 127.703 48.0473 127.808 48.2293 127.953L48.4113 127.638H48.5723L48.6493 129.031H48.3903C48.2783 128.648 48.115 128.364 47.9003 128.177C47.6903 127.99 47.436 127.897 47.1373 127.897C46.8526 127.897 46.6263 127.967 46.4583 128.107C46.2903 128.247 46.2063 128.436 46.2063 128.674C46.2063 128.786 46.225 128.889 46.2623 128.982C46.2996 129.071 46.3603 129.157 46.4443 129.241C46.5283 129.32 46.638 129.402 46.7733 129.486C46.9086 129.565 47.0766 129.649 47.2773 129.738C47.6226 129.892 47.9096 130.037 48.1383 130.172C48.367 130.303 48.549 130.436 48.6843 130.571C48.8196 130.702 48.9153 130.842 48.9713 130.991C49.0273 131.136 49.0553 131.299 49.0553 131.481C49.0553 131.714 49.0086 131.929 48.9153 132.125C48.822 132.321 48.6913 132.489 48.5233 132.629C48.3553 132.769 48.1546 132.879 47.9213 132.958C47.688 133.033 47.4313 133.07 47.1513 133.07C46.8853 133.07 46.645 133.033 46.4303 132.958C46.2203 132.883 46.0056 132.757 45.7863 132.58L45.5903 132.923H45.4293L45.3243 131.355ZM50.27 131.677C50.27 131.91 50.2794 132.095 50.298 132.23C50.3167 132.365 50.3517 132.47 50.403 132.545C50.459 132.62 50.536 132.669 50.634 132.692C50.7367 132.715 50.8697 132.729 51.033 132.734V133H48.765V132.734C48.9284 132.729 49.059 132.715 49.157 132.692C49.2597 132.664 49.339 132.615 49.395 132.545C49.451 132.475 49.4884 132.377 49.507 132.251C49.5257 132.12 49.535 131.945 49.535 131.726V128.884C49.535 128.688 49.5257 128.527 49.507 128.401C49.493 128.27 49.4604 128.168 49.409 128.093C49.3624 128.018 49.2924 127.967 49.199 127.939C49.1057 127.906 48.9844 127.885 48.835 127.876V127.61H50.963V127.876C50.8137 127.881 50.6924 127.899 50.599 127.932C50.5104 127.965 50.4404 128.021 50.389 128.1C50.3424 128.175 50.3097 128.28 50.291 128.415C50.277 128.55 50.27 128.723 50.27 128.933V131.677ZM55.2333 133.07L51.9083 128.688H51.8803V131.677C51.8803 131.91 51.8873 132.095 51.9013 132.23C51.92 132.365 51.9526 132.47 51.9993 132.545C52.0506 132.62 52.1206 132.669 52.2093 132.692C52.3026 132.715 52.424 132.729 52.5733 132.734V133H50.6903V132.734C50.8536 132.729 50.9843 132.715 51.0823 132.692C51.185 132.664 51.2643 132.615 51.3203 132.545C51.3763 132.475 51.4136 132.377 51.4323 132.251C51.451 132.12 51.4603 131.945 51.4603 131.726V128.884C51.4603 128.688 51.451 128.527 51.4323 128.401C51.4183 128.27 51.3856 128.168 51.3343 128.093C51.2876 128.018 51.2176 127.967 51.1243 127.939C51.031 127.906 50.9096 127.885 50.7603 127.876V127.61H52.1463L55.2053 131.691H55.2333V128.933C55.2333 128.704 55.224 128.522 55.2053 128.387C55.1913 128.247 55.1586 128.14 55.1073 128.065C55.0606 127.99 54.9906 127.941 54.8973 127.918C54.8086 127.895 54.6896 127.881 54.5403 127.876V127.61H56.4233V127.876C56.26 127.881 56.127 127.897 56.0243 127.925C55.9263 127.948 55.8493 127.995 55.7933 128.065C55.7373 128.135 55.7 128.235 55.6813 128.366C55.6626 128.497 55.6533 128.669 55.6533 128.884V133.07H55.2333ZM58.6325 133.07C58.2358 133.07 57.8788 133.007 57.5615 132.881C57.2442 132.755 56.9735 132.578 56.7495 132.349C56.5255 132.116 56.3528 131.833 56.2315 131.502C56.1148 131.171 56.0565 130.802 56.0565 130.396C56.0565 129.971 56.1218 129.584 56.2525 129.234C56.3832 128.884 56.5652 128.583 56.7985 128.331C57.0365 128.079 57.3188 127.885 57.6455 127.75C57.9768 127.61 58.3408 127.54 58.7375 127.54C59.0175 127.54 59.2812 127.58 59.5285 127.659C59.7758 127.738 60.0442 127.867 60.3335 128.044L60.4805 127.61H60.7255L60.6345 129.22H60.2985C60.2985 128.991 60.2542 128.795 60.1655 128.632C60.0815 128.464 59.9695 128.326 59.8295 128.219C59.6895 128.112 59.5285 128.032 59.3465 127.981C59.1692 127.93 58.9872 127.904 58.8005 127.904C58.5158 127.904 58.2615 127.96 58.0375 128.072C57.8135 128.184 57.6245 128.345 57.4705 128.555C57.3165 128.765 57.1975 129.022 57.1135 129.325C57.0342 129.628 56.9945 129.971 56.9945 130.354C56.9945 131.105 57.1508 131.684 57.4635 132.09C57.7762 132.491 58.2288 132.692 58.8215 132.692C59.0455 132.692 59.2462 132.666 59.4235 132.615C59.6008 132.559 59.7502 132.487 59.8715 132.398C59.9975 132.305 60.0908 132.2 60.1515 132.083C60.2168 131.962 60.2495 131.836 60.2495 131.705C60.2495 131.434 60.1935 131.252 60.0815 131.159C59.9742 131.061 59.7968 131.012 59.5495 131.012V130.746H61.5375V131.012C61.4255 131.012 61.3322 131.021 61.2575 131.04C61.1828 131.059 61.1222 131.094 61.0755 131.145C61.0335 131.192 61.0032 131.255 60.9845 131.334C60.9705 131.413 60.9635 131.514 60.9635 131.635V132.419C60.8748 132.419 60.7932 132.424 60.7185 132.433C60.6485 132.438 60.5738 132.454 60.4945 132.482C60.4152 132.505 60.3265 132.54 60.2285 132.587C60.1352 132.629 60.0232 132.687 59.8925 132.762C59.7292 132.855 59.5402 132.93 59.3255 132.986C59.1155 133.042 58.8845 133.07 58.6325 133.07ZM64.0786 131.355H64.3376C64.3702 131.565 64.4309 131.754 64.5196 131.922C64.6129 132.09 64.7272 132.232 64.8626 132.349C65.0026 132.466 65.1612 132.557 65.3386 132.622C65.5206 132.683 65.7166 132.713 65.9266 132.713C66.2719 132.713 66.5449 132.631 66.7456 132.468C66.9462 132.305 67.0466 132.083 67.0466 131.803C67.0466 131.686 67.0256 131.579 66.9836 131.481C66.9462 131.383 66.8809 131.29 66.7876 131.201C66.6942 131.108 66.5682 131.017 66.4096 130.928C66.2556 130.839 66.0596 130.744 65.8216 130.641C65.5322 130.515 65.2896 130.394 65.0936 130.277C64.8976 130.16 64.7412 130.039 64.6246 129.913C64.5079 129.787 64.4239 129.654 64.3726 129.514C64.3259 129.369 64.3026 129.206 64.3026 129.024C64.3026 128.809 64.3399 128.611 64.4146 128.429C64.4939 128.247 64.6036 128.091 64.7436 127.96C64.8836 127.825 65.0492 127.722 65.2406 127.652C65.4319 127.577 65.6419 127.54 65.8706 127.54C66.0759 127.54 66.2672 127.573 66.4446 127.638C66.6219 127.703 66.8016 127.808 66.9836 127.953L67.1656 127.638H67.3266L67.4036 129.031H67.1446C67.0326 128.648 66.8692 128.364 66.6546 128.177C66.4446 127.99 66.1902 127.897 65.8916 127.897C65.6069 127.897 65.3806 127.967 65.2126 128.107C65.0446 128.247 64.9606 128.436 64.9606 128.674C64.9606 128.786 64.9792 128.889 65.0166 128.982C65.0539 129.071 65.1146 129.157 65.1986 129.241C65.2826 129.32 65.3922 129.402 65.5276 129.486C65.6629 129.565 65.8309 129.649 66.0316 129.738C66.3769 129.892 66.6639 130.037 66.8926 130.172C67.1212 130.303 67.3032 130.436 67.4386 130.571C67.5739 130.702 67.6696 130.842 67.7256 130.991C67.7816 131.136 67.8096 131.299 67.8096 131.481C67.8096 131.714 67.7629 131.929 67.6696 132.125C67.5762 132.321 67.4456 132.489 67.2776 132.629C67.1096 132.769 66.9089 132.879 66.6756 132.958C66.4422 133.033 66.1856 133.07 65.9056 133.07C65.6396 133.07 65.3992 133.033 65.1846 132.958C64.9746 132.883 64.7599 132.757 64.5406 132.58L64.3446 132.923H64.1836L64.0786 131.355ZM70.5153 127.54C70.9259 127.54 71.3086 127.612 71.6633 127.757C72.0179 127.902 72.3259 128.1 72.5873 128.352C72.8486 128.604 73.0539 128.9 73.2033 129.241C73.3526 129.582 73.4273 129.95 73.4273 130.347C73.4273 130.725 73.3503 131.08 73.1963 131.411C73.0469 131.742 72.8416 132.032 72.5803 132.279C72.3189 132.522 72.0109 132.715 71.6563 132.86C71.3016 133 70.9213 133.07 70.5153 133.07C70.1093 133.07 69.7289 133 69.3743 132.86C69.0196 132.715 68.7116 132.522 68.4503 132.279C68.1889 132.032 67.9813 131.742 67.8273 131.411C67.6779 131.08 67.6033 130.725 67.6033 130.347C67.6033 129.95 67.6779 129.582 67.8273 129.241C67.9766 128.9 68.1819 128.604 68.4433 128.352C68.7046 128.1 69.0126 127.902 69.3673 127.757C69.7219 127.612 70.1046 127.54 70.5153 127.54ZM70.5153 132.685C70.8233 132.685 71.0986 132.631 71.3413 132.524C71.5886 132.417 71.7986 132.263 71.9713 132.062C72.1486 131.861 72.2839 131.619 72.3773 131.334C72.4706 131.045 72.5173 130.723 72.5173 130.368C72.5173 129.995 72.4706 129.659 72.3773 129.36C72.2839 129.057 72.1509 128.8 71.9783 128.59C71.8056 128.375 71.5956 128.212 71.3483 128.1C71.1009 127.983 70.8233 127.925 70.5153 127.925C70.2073 127.925 69.9296 127.983 69.6823 128.1C69.4349 128.212 69.2249 128.375 69.0523 128.59C68.8796 128.8 68.7466 129.057 68.6533 129.36C68.5599 129.659 68.5133 129.995 68.5133 130.368C68.5133 130.723 68.5599 131.045 68.6533 131.334C68.7466 131.619 68.8796 131.861 69.0523 132.062C69.2249 132.263 69.4349 132.417 69.6823 132.524C69.9296 132.631 70.2073 132.685 70.5153 132.685ZM77.3654 128.961C77.3654 129.334 77.2534 129.645 77.0294 129.892C76.8054 130.139 76.4484 130.305 75.9584 130.389L77.5054 132.251C77.6314 132.405 77.7691 132.517 77.9184 132.587C78.0724 132.652 78.2544 132.701 78.4644 132.734V133H77.1134L75.3984 130.802C75.3378 130.723 75.2794 130.66 75.2234 130.613C75.1721 130.566 75.1161 130.531 75.0554 130.508C74.9994 130.48 74.9318 130.464 74.8524 130.459C74.7778 130.45 74.6868 130.445 74.5794 130.445V131.901C74.5794 132.074 74.5888 132.216 74.6074 132.328C74.6308 132.435 74.6751 132.519 74.7404 132.58C74.8104 132.641 74.9084 132.683 75.0344 132.706C75.1651 132.725 75.3354 132.734 75.5454 132.734V133H73.0744V132.734C73.2378 132.729 73.3684 132.715 73.4664 132.692C73.5691 132.669 73.6484 132.629 73.7044 132.573C73.7604 132.517 73.7978 132.438 73.8164 132.335C73.8351 132.232 73.8444 132.099 73.8444 131.936V128.674C73.8444 128.511 73.8351 128.38 73.8164 128.282C73.8024 128.179 73.7698 128.1 73.7184 128.044C73.6718 127.983 73.6018 127.944 73.5084 127.925C73.4151 127.902 73.2938 127.885 73.1444 127.876V127.61H75.3424C75.9864 127.61 76.4834 127.729 76.8334 127.967C77.1881 128.205 77.3654 128.536 77.3654 128.961ZM74.5794 130.095H75.0764C75.5431 130.095 75.8884 130.011 76.1124 129.843C76.3411 129.67 76.4554 129.388 76.4554 128.996C76.4554 128.618 76.3644 128.347 76.1824 128.184C76.0051 128.021 75.7251 127.939 75.3424 127.939H74.6984C74.6191 127.939 74.5794 127.979 74.5794 128.058V130.095ZM82.6271 128.947H82.3401C82.3261 128.746 82.2935 128.578 82.2421 128.443C82.1908 128.308 82.1161 128.203 82.0181 128.128C81.9248 128.049 81.8058 127.993 81.6611 127.96C81.5165 127.927 81.3438 127.911 81.1431 127.911C80.9705 127.911 80.8305 127.916 80.7231 127.925C80.6205 127.93 80.5411 127.941 80.4851 127.96C80.4291 127.979 80.3918 128.002 80.3731 128.03C80.3591 128.053 80.3521 128.086 80.3521 128.128V131.873C80.3521 132.022 80.3615 132.151 80.3801 132.258C80.4035 132.365 80.4455 132.454 80.5061 132.524C80.5715 132.589 80.6625 132.641 80.7791 132.678C80.9005 132.711 81.0591 132.729 81.2551 132.734V133H78.6091V132.734C78.8051 132.729 78.9638 132.711 79.0851 132.678C79.2065 132.641 79.2975 132.589 79.3581 132.524C79.4235 132.454 79.4655 132.365 79.4841 132.258C79.5075 132.151 79.5191 132.022 79.5191 131.873V128.128C79.5191 128.086 79.5098 128.053 79.4911 128.03C79.4771 128.002 79.4445 127.979 79.3931 127.96C79.3465 127.941 79.2788 127.93 79.1901 127.925C79.1015 127.916 78.9825 127.911 78.8331 127.911C78.6511 127.911 78.4808 127.918 78.3221 127.932C78.1681 127.946 78.0328 127.988 77.9161 128.058C77.8041 128.123 77.7131 128.226 77.6431 128.366C77.5731 128.506 77.5358 128.7 77.5311 128.947H77.2721V127.61H82.5571L82.6271 128.947ZM83.5843 130.039C83.8363 130.039 84.0463 130.025 84.2143 129.997C84.3869 129.964 84.5223 129.915 84.6203 129.85C84.7229 129.785 84.7953 129.701 84.8373 129.598C84.8839 129.495 84.9073 129.374 84.9073 129.234H85.1523V131.145H84.9073C84.9073 131.005 84.8863 130.884 84.8443 130.781C84.8069 130.678 84.7369 130.594 84.6343 130.529C84.5363 130.459 84.4009 130.408 84.2283 130.375C84.0603 130.338 83.8456 130.319 83.5843 130.319V131.901C83.5843 132.055 83.6029 132.183 83.6403 132.286C83.6776 132.384 83.7406 132.466 83.8293 132.531C83.9226 132.592 84.0439 132.636 84.1933 132.664C84.3426 132.687 84.5269 132.699 84.7463 132.699C84.9936 132.699 85.2036 132.683 85.3763 132.65C85.5489 132.613 85.6936 132.552 85.8103 132.468C85.9269 132.384 86.0203 132.274 86.0903 132.139C86.1603 131.999 86.2186 131.826 86.2653 131.621H86.5313L86.4263 133H82.0793V132.734C82.2426 132.729 82.3733 132.715 82.4713 132.692C82.5739 132.669 82.6533 132.629 82.7093 132.573C82.7653 132.517 82.8026 132.438 82.8213 132.335C82.8399 132.232 82.8493 132.099 82.8493 131.936V128.674C82.8493 128.511 82.8399 128.38 82.8213 128.282C82.8073 128.179 82.7746 128.1 82.7233 128.044C82.6766 127.983 82.6066 127.944 82.5133 127.925C82.4199 127.902 82.2986 127.885 82.1493 127.876V127.61H86.1953L86.2583 128.842H86.0133C85.9853 128.655 85.9386 128.504 85.8733 128.387C85.8126 128.266 85.7263 128.17 85.6143 128.1C85.5069 128.03 85.3693 127.981 85.2013 127.953C85.0333 127.925 84.8303 127.911 84.5923 127.911H83.7033C83.6239 127.911 83.5843 127.951 83.5843 128.03V130.039ZM86.1294 133V132.734C86.3067 132.729 86.449 132.718 86.5564 132.699C86.6684 132.676 86.7547 132.636 86.8154 132.58C86.876 132.519 86.9157 132.44 86.9344 132.342C86.9577 132.239 86.9694 132.104 86.9694 131.936V128.674C86.9694 128.511 86.96 128.38 86.9414 128.282C86.9274 128.179 86.8947 128.1 86.8434 128.044C86.7967 127.983 86.7267 127.944 86.6334 127.925C86.54 127.902 86.4187 127.885 86.2694 127.876V127.61H88.7264C89.1464 127.61 89.5337 127.68 89.8884 127.82C90.2477 127.96 90.5557 128.154 90.8124 128.401C91.0737 128.648 91.2767 128.942 91.4214 129.283C91.566 129.624 91.6384 129.995 91.6384 130.396C91.6384 130.779 91.5707 131.131 91.4354 131.453C91.3 131.77 91.1087 132.043 90.8614 132.272C90.6187 132.501 90.327 132.68 89.9864 132.811C89.6457 132.937 89.2724 133 88.8664 133H86.1294ZM87.8234 127.953C87.744 127.953 87.7044 127.993 87.7044 128.072V131.859C87.7044 132.391 88.052 132.657 88.7474 132.657C89.3867 132.657 89.8767 132.468 90.2174 132.09C90.558 131.707 90.7284 131.147 90.7284 130.41C90.7284 130.023 90.6817 129.677 90.5884 129.374C90.495 129.071 90.3597 128.814 90.1824 128.604C90.0097 128.394 89.7997 128.233 89.5524 128.121C89.305 128.009 89.025 127.953 88.7124 127.953H87.8234Z" fill="#F0B429"/>
<path d="M60.9134 173.699L8.48603 127L63.5 171.5L60.9134 173.699Z" fill="#F0B429" stroke="#F0B429" stroke-width="0.1"/>
<path d="M60.9999 174L113.844 127L58.5 171.5L60.9999 174Z" fill="#F0B429" stroke="#F0B429" stroke-width="0.1"/>
</svg>
