<svg width="129" height="181" viewBox="0 0 129 181" fill="none" xmlns="http://www.w3.org/2000/svg">
<path d="M58.9134 1.30144L6.48603 48L61.5 3.49988L58.9134 1.30144Z" fill="#F0B429" stroke="#F0B429" stroke-width="0.1"/>
<path d="M58.9999 0.99988L111.844 47.9999L56.5 3.49978L58.9999 0.99988Z" fill="#F0B429" stroke="#F0B429" stroke-width="0.1"/>
<path d="M75 33.5L40 38L69.3911 56.5H115.5L75 33.5Z" fill="white"/>
<path d="M75.3525 33.5374L39.4844 57.6975L0.192383 56.9534L48.5098 31.2991L75.3525 33.5374Z" fill="white" stroke="white" stroke-width="0.1"/>
<path d="M40 29V40" stroke="white" stroke-width="9"/>
<path d="M36.7144 103V62.2727H37.9871V87.6477H38.1462L61.2144 62.2727H62.9644L44.9871 82L62.7258 103H61.0553L44.1121 82.9545L37.9871 89.7159V103H36.7144ZM79.3438 62.2727H86.662V90.9091C86.6487 93.5341 86.0919 95.7945 84.9915 97.6903C83.8912 99.5729 82.3533 101.025 80.3779 102.045C78.4158 103.053 76.1289 103.557 73.5171 103.557C71.1308 103.557 68.983 103.133 67.0739 102.284C65.1781 101.422 63.6734 100.15 62.5597 98.4659C61.4461 96.7822 60.8893 94.6875 60.8893 92.1818H68.2273C68.2406 93.2822 68.4792 94.2301 68.9432 95.0256C69.4205 95.821 70.0768 96.4309 70.912 96.8551C71.7472 97.2794 72.7084 97.4915 73.7955 97.4915C74.9754 97.4915 75.9764 97.2462 76.7984 96.7557C77.6203 96.2519 78.2434 95.5095 78.6677 94.5284C79.1052 93.5473 79.3306 92.3409 79.3438 90.9091V62.2727Z" fill="white"/>
<path d="M15.4 120.902C15.7 120.902 15.97 120.86 16.21 120.776L16.12 121.856C16 121.94 15.814 122.012 15.562 122.072C15.322 122.144 15.058 122.18 14.77 122.18C14.266 122.18 13.828 122.036 13.456 121.748C13.096 121.448 12.694 121.004 12.25 120.416L8.34398 115.142V120.128C8.34398 120.368 8.37398 120.536 8.43398 120.632C8.50598 120.716 8.64998 120.776 8.86598 120.812L9.83798 120.974V122H5.42798V120.974L6.32798 120.812C6.54398 120.776 6.68198 120.716 6.74198 120.632C6.81398 120.536 6.84998 120.368 6.84998 120.128V110.912C6.84998 110.672 6.81398 110.51 6.74198 110.426C6.68198 110.33 6.54398 110.264 6.32798 110.228L5.42798 110.066V109.04H9.83798V110.066L8.86598 110.228C8.64998 110.264 8.50598 110.33 8.43398 110.426C8.37398 110.51 8.34398 110.672 8.34398 110.912V114.782L12.952 109.814C13.432 109.298 14.05 109.04 14.806 109.04H15.526V110.174C15.118 110.174 14.794 110.216 14.554 110.3C14.314 110.384 14.056 110.57 13.78 110.858L9.98198 114.926L13.384 119.39C13.852 119.99 14.224 120.392 14.5 120.596C14.788 120.8 15.088 120.902 15.4 120.902ZM26.6809 122H17.4289V120.956L18.3289 120.794C18.5449 120.758 18.6829 120.698 18.7429 120.614C18.8149 120.518 18.8509 120.35 18.8509 120.11V110.912C18.8509 110.66 18.8149 110.486 18.7429 110.39C18.6829 110.282 18.5449 110.216 18.3289 110.192L17.4289 110.084V109.04H26.6089L26.5009 112.118H25.3849L25.2769 110.822C25.2649 110.618 25.2049 110.48 25.0969 110.408C25.0009 110.336 24.8329 110.3 24.5929 110.3H20.3449V114.638H24.6289V115.826H20.3449V120.74H24.6469C24.8869 120.74 25.0549 120.704 25.1509 120.632C25.2589 120.56 25.3189 120.422 25.3309 120.218L25.4389 118.85H26.5729L26.6809 122ZM27.3361 123.818C28.2241 123.29 28.8661 122.834 29.2621 122.45C29.6701 122.066 29.9401 121.64 30.0721 121.172C30.2041 120.692 30.2701 120.02 30.2701 119.156V110.912C30.2701 110.672 30.2341 110.51 30.1621 110.426C30.1021 110.33 29.9641 110.264 29.7481 110.228L28.8481 110.066V109.04H33.1681V110.066L32.2861 110.228C32.0701 110.264 31.9261 110.33 31.8541 110.426C31.7941 110.51 31.7641 110.672 31.7641 110.912V119.336C31.7641 120.404 31.6681 121.226 31.4761 121.802C31.2961 122.378 30.9541 122.87 30.4501 123.278C29.9461 123.698 29.1301 124.202 28.0021 124.79L27.3361 123.818ZM46.4079 120.974V122H41.9619V121.01L42.8979 120.848C43.2099 120.788 43.3659 120.644 43.3659 120.416C43.3659 120.308 43.3419 120.182 43.2939 120.038L42.5019 117.698H37.6779L36.8679 119.984C36.8199 120.152 36.7959 120.284 36.7959 120.38C36.7959 120.632 36.9579 120.788 37.2819 120.848L38.1819 121.01V122H34.0239V120.974L34.6539 120.848C34.8939 120.8 35.0679 120.728 35.1759 120.632C35.2839 120.524 35.3919 120.32 35.4999 120.02L39.4239 109.04H41.1159L44.8959 120.02C44.9919 120.308 45.0939 120.506 45.2019 120.614C45.3219 120.722 45.5079 120.8 45.7599 120.848L46.4079 120.974ZM42.0879 116.492L40.3599 111.398L40.1259 110.498L39.8919 111.398L38.0919 116.492H42.0879ZM67.767 120.974V122H63.357V120.974L64.311 120.866C64.479 120.842 64.611 120.782 64.707 120.686C64.803 120.59 64.845 120.458 64.833 120.29L64.311 112.262L64.239 110.894L63.825 112.244L60.639 122H59.397L56.103 112.19L55.689 110.894L55.653 112.208L55.149 120.254C55.137 120.446 55.173 120.59 55.257 120.686C55.341 120.782 55.485 120.842 55.689 120.866L56.607 120.974V122H52.449V120.974L53.367 120.812C53.583 120.776 53.715 120.722 53.763 120.65C53.823 120.566 53.865 120.398 53.889 120.146L54.537 110.714C54.549 110.558 54.507 110.438 54.411 110.354C54.315 110.258 54.177 110.198 53.997 110.174L53.115 110.066V109.04H56.607L59.847 118.778L60.135 119.966L60.441 118.706L63.555 109.04H67.101V110.066L66.237 110.174C66.021 110.198 65.871 110.252 65.787 110.336C65.703 110.42 65.667 110.558 65.679 110.75L66.327 120.146C66.351 120.398 66.387 120.566 66.435 120.65C66.495 120.722 66.633 120.776 66.849 120.812L67.767 120.974ZM81.11 120.974V122H76.664V121.01L77.6 120.848C77.912 120.788 78.068 120.644 78.068 120.416C78.068 120.308 78.044 120.182 77.996 120.038L77.204 117.698H72.38L71.57 119.984C71.522 120.152 71.498 120.284 71.498 120.38C71.498 120.632 71.66 120.788 71.984 120.848L72.884 121.01V122H68.726V120.974L69.356 120.848C69.596 120.8 69.77 120.728 69.878 120.632C69.986 120.524 70.094 120.32 70.202 120.02L74.126 109.04H75.818L79.598 120.02C79.694 120.308 79.796 120.506 79.904 120.614C80.024 120.722 80.21 120.8 80.462 120.848L81.11 120.974ZM76.79 116.492L75.062 111.398L74.828 110.498L74.594 111.398L72.794 116.492H76.79ZM91.5976 109.04L91.4896 112.154H90.3916L90.2836 110.822C90.2716 110.618 90.2116 110.48 90.1036 110.408C90.0076 110.336 89.8396 110.3 89.5996 110.3H87.0436V120.128C87.0436 120.368 87.0736 120.536 87.1336 120.632C87.2056 120.716 87.3496 120.776 87.5656 120.812L88.5736 120.974V122H84.0196V120.974L85.0276 120.812C85.2436 120.776 85.3816 120.716 85.4416 120.632C85.5136 120.536 85.5496 120.368 85.5496 120.128V110.3H82.9756C82.7356 110.3 82.5676 110.336 82.4716 110.408C82.3756 110.48 82.3216 110.618 82.3096 110.822L82.1836 112.154H81.0856L80.9776 109.04H91.5976ZM98.143 122.18C96.475 122.18 95.197 121.622 94.309 120.506C93.421 119.378 92.977 117.806 92.977 115.79C92.977 114.362 93.199 113.126 93.643 112.082C94.099 111.038 94.759 110.24 95.623 109.688C96.499 109.136 97.549 108.86 98.773 108.86C99.517 108.86 100.225 108.956 100.897 109.148C101.581 109.34 102.163 109.58 102.643 109.868L102.355 112.838H101.239L100.951 110.732C100.183 110.36 99.343 110.174 98.431 110.174C97.063 110.174 96.085 110.582 95.497 111.398C94.909 112.202 94.615 113.438 94.615 115.106C94.615 117.05 94.963 118.496 95.659 119.444C96.367 120.38 97.357 120.848 98.629 120.848C99.685 120.848 100.891 120.56 102.247 119.984L102.589 121.118C101.929 121.406 101.209 121.658 100.429 121.874C99.661 122.078 98.899 122.18 98.143 122.18ZM115.375 110.228C115.159 110.264 115.015 110.33 114.943 110.426C114.883 110.51 114.853 110.672 114.853 110.912V120.128C114.853 120.368 114.883 120.536 114.943 120.632C115.015 120.716 115.159 120.776 115.375 120.812L116.275 120.974V122H111.847V120.974L112.837 120.812C113.053 120.776 113.191 120.716 113.251 120.632C113.323 120.536 113.359 120.368 113.359 120.128V115.808H107.185V120.128C107.185 120.368 107.215 120.536 107.275 120.632C107.347 120.716 107.491 120.776 107.707 120.812L108.697 120.974V122H104.269V120.974L105.169 120.812C105.385 120.776 105.523 120.716 105.583 120.632C105.655 120.536 105.691 120.368 105.691 120.128V110.912C105.691 110.672 105.655 110.51 105.583 110.426C105.523 110.33 105.385 110.264 105.169 110.228L104.269 110.066V109.04H108.697V110.066L107.707 110.228C107.491 110.264 107.347 110.33 107.275 110.426C107.215 110.51 107.185 110.672 107.185 110.912V114.62H113.359V110.912C113.359 110.672 113.323 110.51 113.251 110.426C113.191 110.33 113.053 110.264 112.837 110.228L111.847 110.066V109.04H116.275V110.066L115.375 110.228Z" fill="#F5F9FF"/>
<path d="M30.603 131.728C30.603 131.931 30.6136 132.096 30.635 132.224C30.6563 132.347 30.6963 132.443 30.755 132.512C30.819 132.576 30.907 132.621 31.019 132.648C31.1363 132.675 31.2883 132.691 31.475 132.696V133H28.883V132.696C29.0696 132.691 29.219 132.675 29.331 132.648C29.4483 132.621 29.539 132.576 29.603 132.512C29.667 132.448 29.7096 132.357 29.731 132.24C29.7523 132.123 29.763 131.971 29.763 131.784V130.048H26.523V131.728C26.523 131.931 26.5336 132.096 26.555 132.224C26.5763 132.347 26.6163 132.443 26.675 132.512C26.739 132.576 26.827 132.621 26.939 132.648C27.0563 132.675 27.2083 132.691 27.395 132.696V133H24.803V132.696C24.9896 132.691 25.139 132.675 25.251 132.648C25.3683 132.621 25.459 132.576 25.523 132.512C25.587 132.448 25.6296 132.357 25.651 132.24C25.6723 132.123 25.683 131.971 25.683 131.784V128.056C25.683 127.869 25.6723 127.72 25.651 127.608C25.635 127.491 25.5976 127.4 25.539 127.336C25.4856 127.267 25.4056 127.221 25.299 127.2C25.1923 127.173 25.0536 127.155 24.883 127.144V126.84H27.315V127.144C27.1443 127.149 27.0056 127.165 26.899 127.192C26.7976 127.219 26.7176 127.267 26.659 127.336C26.6056 127.405 26.5683 127.501 26.547 127.624C26.531 127.747 26.523 127.909 26.523 128.112V129.648H29.763V128.056C29.763 127.869 29.7523 127.72 29.731 127.608C29.715 127.491 29.6776 127.4 29.619 127.336C29.5656 127.267 29.4856 127.221 29.379 127.2C29.2723 127.173 29.1336 127.155 28.963 127.144V126.84H31.395V127.144C31.2243 127.149 31.0856 127.165 30.979 127.192C30.8776 127.219 30.7976 127.267 30.739 127.336C30.6856 127.405 30.6483 127.501 30.627 127.624C30.611 127.747 30.603 127.909 30.603 128.112V131.728ZM34.396 126.76C34.8654 126.76 35.3027 126.843 35.708 127.008C36.1134 127.173 36.4654 127.4 36.764 127.688C37.0627 127.976 37.2974 128.315 37.468 128.704C37.6387 129.093 37.724 129.515 37.724 129.968C37.724 130.4 37.636 130.805 37.46 131.184C37.2894 131.563 37.0547 131.893 36.756 132.176C36.4574 132.453 36.1054 132.675 35.7 132.84C35.2947 133 34.86 133.08 34.396 133.08C33.932 133.08 33.4974 133 33.092 132.84C32.6867 132.675 32.3347 132.453 32.036 132.176C31.7374 131.893 31.5 131.563 31.324 131.184C31.1534 130.805 31.068 130.4 31.068 129.968C31.068 129.515 31.1534 129.093 31.324 128.704C31.4947 128.315 31.7294 127.976 32.028 127.688C32.3267 127.4 32.6787 127.173 33.084 127.008C33.4894 126.843 33.9267 126.76 34.396 126.76ZM34.396 132.64C34.748 132.64 35.0627 132.579 35.34 132.456C35.6227 132.333 35.8627 132.157 36.06 131.928C36.2627 131.699 36.4174 131.421 36.524 131.096C36.6307 130.765 36.684 130.397 36.684 129.992C36.684 129.565 36.6307 129.181 36.524 128.84C36.4174 128.493 36.2654 128.2 36.068 127.96C35.8707 127.715 35.6307 127.528 35.348 127.4C35.0654 127.267 34.748 127.2 34.396 127.2C34.044 127.2 33.7267 127.267 33.444 127.4C33.1614 127.528 32.9214 127.715 32.724 127.96C32.5267 128.2 32.3747 128.493 32.268 128.84C32.1614 129.181 32.108 129.565 32.108 129.992C32.108 130.397 32.1614 130.765 32.268 131.096C32.3747 131.421 32.5267 131.699 32.724 131.928C32.9214 132.157 33.1614 132.333 33.444 132.456C33.7267 132.579 34.044 132.64 34.396 132.64ZM42.7446 130.52C42.7446 130.941 42.7019 131.312 42.6166 131.632C42.5366 131.952 42.4033 132.219 42.2166 132.432C42.0353 132.645 41.7979 132.808 41.5046 132.92C41.2113 133.027 40.8566 133.08 40.4406 133.08C40.0459 133.08 39.7019 133.043 39.4086 132.968C39.1153 132.888 38.8699 132.76 38.6726 132.584C38.4753 132.403 38.3286 132.168 38.2326 131.88C38.1366 131.592 38.0886 131.237 38.0886 130.816V128.704C38.0886 128.309 38.0779 128.005 38.0566 127.792C38.0406 127.579 37.9873 127.421 37.8966 127.32C37.8326 127.251 37.7446 127.205 37.6326 127.184C37.5259 127.157 37.3819 127.144 37.2006 127.144V126.84H39.9286V127.144C39.7473 127.144 39.6006 127.155 39.4886 127.176C39.3766 127.197 39.2886 127.251 39.2246 127.336C39.1499 127.432 39.1019 127.587 39.0806 127.8C39.0593 128.008 39.0486 128.309 39.0486 128.704V130.88C39.0486 131.152 39.0753 131.395 39.1286 131.608C39.1873 131.816 39.2806 131.995 39.4086 132.144C39.5366 132.288 39.7019 132.397 39.9046 132.472C40.1126 132.547 40.3659 132.584 40.6646 132.584C41.1979 132.584 41.5979 132.437 41.8646 132.144C42.1313 131.845 42.2646 131.408 42.2646 130.832V128.904C42.2646 128.429 42.2459 128.069 42.2086 127.824C42.1713 127.579 42.1019 127.405 42.0006 127.304C41.9259 127.235 41.8326 127.192 41.7206 127.176C41.6086 127.155 41.4699 127.144 41.3046 127.144V126.84H43.6246V127.144C43.4539 127.144 43.3126 127.157 43.2006 127.184C43.0939 127.211 43.0086 127.269 42.9446 127.36C42.8646 127.472 42.8113 127.648 42.7846 127.888C42.7579 128.123 42.7446 128.461 42.7446 128.904V130.52ZM43.1563 131.12H43.4523C43.4897 131.36 43.559 131.576 43.6603 131.768C43.767 131.96 43.8977 132.123 44.0523 132.256C44.2123 132.389 44.3937 132.493 44.5963 132.568C44.8043 132.637 45.0283 132.672 45.2683 132.672C45.663 132.672 45.975 132.579 46.2043 132.392C46.4337 132.205 46.5483 131.952 46.5483 131.632C46.5483 131.499 46.5243 131.376 46.4763 131.264C46.4337 131.152 46.359 131.045 46.2523 130.944C46.1457 130.837 46.0017 130.733 45.8203 130.632C45.6443 130.531 45.4203 130.421 45.1483 130.304C44.8177 130.16 44.5403 130.021 44.3163 129.888C44.0923 129.755 43.9137 129.616 43.7803 129.472C43.647 129.328 43.551 129.176 43.4923 129.016C43.439 128.851 43.4123 128.664 43.4123 128.456C43.4123 128.211 43.455 127.984 43.5403 127.776C43.631 127.568 43.7563 127.389 43.9163 127.24C44.0763 127.085 44.2657 126.968 44.4843 126.888C44.703 126.803 44.943 126.76 45.2043 126.76C45.439 126.76 45.6577 126.797 45.8603 126.872C46.063 126.947 46.2683 127.067 46.4763 127.232L46.6843 126.872H46.8683L46.9563 128.464H46.6603C46.5323 128.027 46.3457 127.701 46.1003 127.488C45.8603 127.275 45.5697 127.168 45.2283 127.168C44.903 127.168 44.6443 127.248 44.4523 127.408C44.2603 127.568 44.1643 127.784 44.1643 128.056C44.1643 128.184 44.1857 128.301 44.2283 128.408C44.271 128.509 44.3403 128.608 44.4363 128.704C44.5323 128.795 44.6577 128.888 44.8123 128.984C44.967 129.075 45.159 129.171 45.3883 129.272C45.783 129.448 46.111 129.613 46.3723 129.768C46.6337 129.917 46.8417 130.069 46.9963 130.224C47.151 130.373 47.2603 130.533 47.3243 130.704C47.3883 130.869 47.4203 131.056 47.4203 131.264C47.4203 131.531 47.367 131.776 47.2603 132C47.1537 132.224 47.0043 132.416 46.8123 132.576C46.6203 132.736 46.391 132.861 46.1243 132.952C45.8577 133.037 45.5643 133.08 45.2443 133.08C44.9403 133.08 44.6657 133.037 44.4203 132.952C44.1803 132.867 43.935 132.723 43.6843 132.52L43.4603 132.912H43.2763L43.1563 131.12ZM48.8086 131.488C48.8086 131.755 48.8193 131.965 48.8406 132.12C48.8619 132.275 48.9019 132.395 48.9606 132.48C49.0246 132.565 49.1126 132.621 49.2246 132.648C49.3419 132.675 49.4939 132.691 49.6806 132.696V133H47.0886V132.696C47.2753 132.691 47.4246 132.675 47.5366 132.648C47.6539 132.616 47.7446 132.56 47.8086 132.48C47.8726 132.4 47.9153 132.288 47.9366 132.144C47.9579 131.995 47.9686 131.795 47.9686 131.544V128.296C47.9686 128.072 47.9579 127.888 47.9366 127.744C47.9206 127.595 47.8833 127.477 47.8246 127.392C47.7713 127.307 47.6913 127.248 47.5846 127.216C47.4779 127.179 47.3393 127.155 47.1686 127.144V126.84H49.6006V127.144C49.4299 127.149 49.2913 127.171 49.1846 127.208C49.0833 127.245 49.0033 127.309 48.9446 127.4C48.8913 127.485 48.8539 127.605 48.8326 127.76C48.8166 127.915 48.8086 128.112 48.8086 128.352V131.488ZM54.4809 133.08L50.6809 128.072H50.6489V131.488C50.6489 131.755 50.6569 131.965 50.6729 132.12C50.6942 132.275 50.7316 132.395 50.7849 132.48C50.8436 132.565 50.9236 132.621 51.0249 132.648C51.1316 132.675 51.2702 132.691 51.4409 132.696V133H49.2889V132.696C49.4756 132.691 49.6249 132.675 49.7369 132.648C49.8542 132.616 49.9449 132.56 50.0089 132.48C50.0729 132.4 50.1156 132.288 50.1369 132.144C50.1582 131.995 50.1689 131.795 50.1689 131.544V128.296C50.1689 128.072 50.1582 127.888 50.1369 127.744C50.1209 127.595 50.0836 127.477 50.0249 127.392C49.9716 127.307 49.8916 127.248 49.7849 127.216C49.6782 127.179 49.5396 127.155 49.3689 127.144V126.84H50.9529L54.4489 131.504H54.4809V128.352C54.4809 128.091 54.4702 127.883 54.4489 127.728C54.4329 127.568 54.3956 127.445 54.3369 127.36C54.2836 127.275 54.2036 127.219 54.0969 127.192C53.9956 127.165 53.8596 127.149 53.6889 127.144V126.84H55.8409V127.144C55.6542 127.149 55.5022 127.168 55.3849 127.2C55.2729 127.227 55.1849 127.28 55.1209 127.36C55.0569 127.44 55.0142 127.555 54.9929 127.704C54.9716 127.853 54.9609 128.051 54.9609 128.296V133.08H54.4809ZM58.3657 133.08C57.9124 133.08 57.5044 133.008 57.1417 132.864C56.7791 132.72 56.4697 132.517 56.2137 132.256C55.9577 131.989 55.7604 131.667 55.6217 131.288C55.4884 130.909 55.4217 130.488 55.4217 130.024C55.4217 129.539 55.4964 129.096 55.6457 128.696C55.7951 128.296 56.0031 127.952 56.2697 127.664C56.5417 127.376 56.8644 127.155 57.2377 127C57.6164 126.84 58.0324 126.76 58.4857 126.76C58.8057 126.76 59.1071 126.805 59.3897 126.896C59.6724 126.987 59.9791 127.133 60.3097 127.336L60.4777 126.84H60.7577L60.6537 128.68H60.2697C60.2697 128.419 60.2191 128.195 60.1177 128.008C60.0217 127.816 59.8937 127.659 59.7337 127.536C59.5737 127.413 59.3897 127.323 59.1817 127.264C58.9791 127.205 58.7711 127.176 58.5577 127.176C58.2324 127.176 57.9417 127.24 57.6857 127.368C57.4297 127.496 57.2137 127.68 57.0377 127.92C56.8617 128.16 56.7257 128.453 56.6297 128.8C56.5391 129.147 56.4937 129.539 56.4937 129.976C56.4937 130.835 56.6724 131.496 57.0297 131.96C57.3871 132.419 57.9044 132.648 58.5817 132.648C58.8377 132.648 59.0671 132.619 59.2697 132.56C59.4724 132.496 59.6431 132.413 59.7817 132.312C59.9257 132.205 60.0324 132.085 60.1017 131.952C60.1764 131.813 60.2137 131.669 60.2137 131.52C60.2137 131.211 60.1497 131.003 60.0217 130.896C59.8991 130.784 59.6964 130.728 59.4137 130.728V130.424H61.6857V130.728C61.5577 130.728 61.4511 130.739 61.3657 130.76C61.2804 130.781 61.2111 130.821 61.1577 130.88C61.1097 130.933 61.0751 131.005 61.0537 131.096C61.0377 131.187 61.0297 131.301 61.0297 131.44V132.336C60.9284 132.336 60.8351 132.341 60.7497 132.352C60.6697 132.357 60.5844 132.376 60.4937 132.408C60.4031 132.435 60.3017 132.475 60.1897 132.528C60.0831 132.576 59.9551 132.643 59.8057 132.728C59.6191 132.835 59.4031 132.92 59.1577 132.984C58.9177 133.048 58.6537 133.08 58.3657 133.08ZM64.5898 131.12H64.8858C64.9231 131.36 64.9924 131.576 65.0938 131.768C65.2004 131.96 65.3311 132.123 65.4858 132.256C65.6458 132.389 65.8271 132.493 66.0298 132.568C66.2378 132.637 66.4618 132.672 66.7018 132.672C67.0964 132.672 67.4084 132.579 67.6378 132.392C67.8671 132.205 67.9818 131.952 67.9818 131.632C67.9818 131.499 67.9578 131.376 67.9098 131.264C67.8671 131.152 67.7924 131.045 67.6858 130.944C67.5791 130.837 67.4351 130.733 67.2538 130.632C67.0778 130.531 66.8538 130.421 66.5818 130.304C66.2511 130.16 65.9738 130.021 65.7498 129.888C65.5258 129.755 65.3471 129.616 65.2138 129.472C65.0804 129.328 64.9844 129.176 64.9258 129.016C64.8724 128.851 64.8458 128.664 64.8458 128.456C64.8458 128.211 64.8884 127.984 64.9738 127.776C65.0644 127.568 65.1898 127.389 65.3498 127.24C65.5098 127.085 65.6991 126.968 65.9178 126.888C66.1364 126.803 66.3764 126.76 66.6378 126.76C66.8724 126.76 67.0911 126.797 67.2938 126.872C67.4964 126.947 67.7018 127.067 67.9098 127.232L68.1178 126.872H68.3018L68.3898 128.464H68.0938C67.9658 128.027 67.7791 127.701 67.5338 127.488C67.2938 127.275 67.0031 127.168 66.6618 127.168C66.3364 127.168 66.0778 127.248 65.8858 127.408C65.6938 127.568 65.5978 127.784 65.5978 128.056C65.5978 128.184 65.6191 128.301 65.6618 128.408C65.7044 128.509 65.7738 128.608 65.8698 128.704C65.9658 128.795 66.0911 128.888 66.2458 128.984C66.4004 129.075 66.5924 129.171 66.8218 129.272C67.2164 129.448 67.5444 129.613 67.8058 129.768C68.0671 129.917 68.2751 130.069 68.4298 130.224C68.5844 130.373 68.6938 130.533 68.7578 130.704C68.8218 130.869 68.8538 131.056 68.8538 131.264C68.8538 131.531 68.8004 131.776 68.6938 132C68.5871 132.224 68.4378 132.416 68.2458 132.576C68.0538 132.736 67.8244 132.861 67.5578 132.952C67.2911 133.037 66.9978 133.08 66.6778 133.08C66.3738 133.08 66.0991 133.037 65.8538 132.952C65.6138 132.867 65.3684 132.723 65.1178 132.52L64.8938 132.912H64.7098L64.5898 131.12ZM71.946 126.76C72.4154 126.76 72.8527 126.843 73.258 127.008C73.6634 127.173 74.0154 127.4 74.314 127.688C74.6127 127.976 74.8474 128.315 75.018 128.704C75.1887 129.093 75.274 129.515 75.274 129.968C75.274 130.4 75.186 130.805 75.01 131.184C74.8394 131.563 74.6047 131.893 74.306 132.176C74.0074 132.453 73.6554 132.675 73.25 132.84C72.8447 133 72.41 133.08 71.946 133.08C71.482 133.08 71.0474 133 70.642 132.84C70.2367 132.675 69.8847 132.453 69.586 132.176C69.2874 131.893 69.05 131.563 68.874 131.184C68.7034 130.805 68.618 130.4 68.618 129.968C68.618 129.515 68.7034 129.093 68.874 128.704C69.0447 128.315 69.2794 127.976 69.578 127.688C69.8767 127.4 70.2287 127.173 70.634 127.008C71.0394 126.843 71.4767 126.76 71.946 126.76ZM71.946 132.64C72.298 132.64 72.6127 132.579 72.89 132.456C73.1727 132.333 73.4127 132.157 73.61 131.928C73.8127 131.699 73.9674 131.421 74.074 131.096C74.1807 130.765 74.234 130.397 74.234 129.992C74.234 129.565 74.1807 129.181 74.074 128.84C73.9674 128.493 73.8154 128.2 73.618 127.96C73.4207 127.715 73.1807 127.528 72.898 127.4C72.6154 127.267 72.298 127.2 71.946 127.2C71.594 127.2 71.2767 127.267 70.994 127.4C70.7114 127.528 70.4714 127.715 70.274 127.96C70.0767 128.2 69.9247 128.493 69.818 128.84C69.7114 129.181 69.658 129.565 69.658 129.992C69.658 130.397 69.7114 130.765 69.818 131.096C69.9247 131.421 70.0767 131.699 70.274 131.928C70.4714 132.157 70.7114 132.333 70.994 132.456C71.2767 132.579 71.594 132.64 71.946 132.64ZM79.7748 128.384C79.7748 128.811 79.6468 129.165 79.3908 129.448C79.1348 129.731 78.7268 129.92 78.1668 130.016L79.9348 132.144C80.0788 132.32 80.2361 132.448 80.4068 132.528C80.5828 132.603 80.7908 132.659 81.0308 132.696V133H79.4868L77.5268 130.488C77.4575 130.397 77.3908 130.325 77.3268 130.272C77.2681 130.219 77.2041 130.179 77.1348 130.152C77.0708 130.12 76.9935 130.101 76.9028 130.096C76.8175 130.085 76.7135 130.08 76.5908 130.08V131.744C76.5908 131.941 76.6015 132.104 76.6228 132.232C76.6495 132.355 76.7001 132.451 76.7748 132.52C76.8548 132.589 76.9668 132.637 77.1108 132.664C77.2601 132.685 77.4548 132.696 77.6948 132.696V133H74.8708V132.696C75.0575 132.691 75.2068 132.675 75.3188 132.648C75.4361 132.621 75.5268 132.576 75.5908 132.512C75.6548 132.448 75.6975 132.357 75.7188 132.24C75.7401 132.123 75.7508 131.971 75.7508 131.784V128.056C75.7508 127.869 75.7401 127.72 75.7188 127.608C75.7028 127.491 75.6655 127.4 75.6068 127.336C75.5535 127.267 75.4735 127.221 75.3668 127.2C75.2601 127.173 75.1215 127.155 74.9508 127.144V126.84H77.4628C78.1988 126.84 78.7668 126.976 79.1668 127.248C79.5721 127.52 79.7748 127.899 79.7748 128.384ZM76.5908 129.68H77.1588C77.6921 129.68 78.0868 129.584 78.3428 129.392C78.6041 129.195 78.7348 128.872 78.7348 128.424C78.7348 127.992 78.6308 127.683 78.4228 127.496C78.2201 127.309 77.9001 127.216 77.4628 127.216H76.7268C76.6361 127.216 76.5908 127.261 76.5908 127.352V129.68ZM85.7882 128.368H85.4602C85.4442 128.139 85.4068 127.947 85.3482 127.792C85.2895 127.637 85.2042 127.517 85.0922 127.432C84.9855 127.341 84.8495 127.277 84.6842 127.24C84.5188 127.203 84.3215 127.184 84.0922 127.184C83.8948 127.184 83.7348 127.189 83.6122 127.2C83.4948 127.205 83.4042 127.219 83.3402 127.24C83.2762 127.261 83.2335 127.288 83.2122 127.32C83.1962 127.347 83.1882 127.384 83.1882 127.432V131.712C83.1882 131.883 83.1988 132.029 83.2202 132.152C83.2468 132.275 83.2948 132.376 83.3642 132.456C83.4388 132.531 83.5428 132.589 83.6762 132.632C83.8148 132.669 83.9962 132.691 84.2202 132.696V133H81.1962V132.696C81.4202 132.691 81.6015 132.669 81.7402 132.632C81.8788 132.589 81.9828 132.531 82.0522 132.456C82.1268 132.376 82.1748 132.275 82.1962 132.152C82.2228 132.029 82.2362 131.883 82.2362 131.712V127.432C82.2362 127.384 82.2255 127.347 82.2042 127.32C82.1882 127.288 82.1508 127.261 82.0922 127.24C82.0388 127.219 81.9615 127.205 81.8602 127.2C81.7588 127.189 81.6228 127.184 81.4522 127.184C81.2442 127.184 81.0495 127.192 80.8682 127.208C80.6922 127.224 80.5375 127.272 80.4042 127.352C80.2762 127.427 80.1722 127.544 80.0922 127.704C80.0122 127.864 79.9695 128.085 79.9642 128.368H79.6682V126.84H85.7082L85.7882 128.368ZM86.882 129.616C87.17 129.616 87.41 129.6 87.602 129.568C87.7994 129.531 87.954 129.475 88.066 129.4C88.1834 129.325 88.266 129.229 88.314 129.112C88.3674 128.995 88.394 128.856 88.394 128.696H88.674V130.88H88.394C88.394 130.72 88.37 130.581 88.322 130.464C88.2794 130.347 88.1994 130.251 88.082 130.176C87.97 130.096 87.8154 130.037 87.618 130C87.426 129.957 87.1807 129.936 86.882 129.936V131.744C86.882 131.92 86.9034 132.067 86.946 132.184C86.9887 132.296 87.0607 132.389 87.162 132.464C87.2687 132.533 87.4074 132.584 87.578 132.616C87.7487 132.643 87.9594 132.656 88.21 132.656C88.4927 132.656 88.7327 132.637 88.93 132.6C89.1274 132.557 89.2927 132.488 89.426 132.392C89.5594 132.296 89.666 132.171 89.746 132.016C89.826 131.856 89.8927 131.659 89.946 131.424H90.25L90.13 133H85.162V132.696C85.3487 132.691 85.498 132.675 85.61 132.648C85.7274 132.621 85.818 132.576 85.882 132.512C85.946 132.448 85.9887 132.357 86.01 132.24C86.0314 132.123 86.042 131.971 86.042 131.784V128.056C86.042 127.869 86.0314 127.72 86.01 127.608C85.994 127.491 85.9567 127.4 85.898 127.336C85.8447 127.267 85.7647 127.221 85.658 127.2C85.5514 127.173 85.4127 127.155 85.242 127.144V126.84H89.866L89.938 128.248H89.658C89.626 128.035 89.5727 127.861 89.498 127.728C89.4287 127.589 89.33 127.48 89.202 127.4C89.0794 127.32 88.922 127.264 88.73 127.232C88.538 127.2 88.306 127.184 88.034 127.184H87.018C86.9274 127.184 86.882 127.229 86.882 127.32V129.616ZM89.7907 133V132.696C89.9934 132.691 90.1561 132.677 90.2787 132.656C90.4067 132.629 90.5054 132.584 90.5747 132.52C90.6441 132.451 90.6894 132.36 90.7107 132.248C90.7374 132.131 90.7507 131.976 90.7507 131.784V128.056C90.7507 127.869 90.7401 127.72 90.7187 127.608C90.7027 127.491 90.6654 127.4 90.6067 127.336C90.5534 127.267 90.4734 127.221 90.3667 127.2C90.2601 127.173 90.1214 127.155 89.9507 127.144V126.84H92.7587C93.2387 126.84 93.6814 126.92 94.0867 127.08C94.4974 127.24 94.8494 127.461 95.1427 127.744C95.4414 128.027 95.6734 128.363 95.8387 128.752C96.0041 129.141 96.0867 129.565 96.0867 130.024C96.0867 130.461 96.0094 130.864 95.8547 131.232C95.7001 131.595 95.4814 131.907 95.1987 132.168C94.9214 132.429 94.5881 132.635 94.1987 132.784C93.8094 132.928 93.3827 133 92.9187 133H89.7907ZM91.7267 127.232C91.6361 127.232 91.5907 127.277 91.5907 127.368V131.696C91.5907 132.304 91.9881 132.608 92.7827 132.608C93.5134 132.608 94.0734 132.392 94.4627 131.96C94.8521 131.523 95.0467 130.883 95.0467 130.04C95.0467 129.597 94.9934 129.203 94.8867 128.856C94.7801 128.509 94.6254 128.216 94.4227 127.976C94.2254 127.736 93.9854 127.552 93.7027 127.424C93.4201 127.296 93.1001 127.232 92.7427 127.232H91.7267Z" fill="#F0B429"/>
<path d="M58.9134 179.699L6.48603 133L61.5 177.5L58.9134 179.699Z" fill="#F0B429" stroke="#F0B429" stroke-width="0.1"/>
<path d="M58.9999 180L111.844 133L56.5 177.5L58.9999 180Z" fill="#F0B429" stroke="#F0B429" stroke-width="0.1"/>
</svg>
